<svg width="900" height="605" viewBox="0 0 900 605" fill="none" xmlns="http://www.w3.org/2000/svg">
<path d="M512.614 358.265C405.764 406.376 301.993 443.601 220.603 464.895C179.903 475.543 144.827 482.2 117.775 484.25C104.247 485.275 92.7598 485.145 83.5949 483.8C74.4313 482.454 67.655 479.905 63.4424 476.124C59.2298 472.344 57.6954 467.434 58.7399 461.493C59.7847 455.55 63.4039 448.618 69.4137 440.846C81.4321 425.304 102.95 406.478 132.256 385.605C190.862 343.862 280.535 293.985 387.386 245.874C494.236 197.762 598.007 160.538 679.397 139.244C720.097 128.596 755.173 121.939 782.225 119.889C795.753 118.864 807.24 118.994 816.405 120.339C825.569 121.685 832.345 124.234 836.557 128.015C840.77 131.795 842.305 136.705 841.26 142.646C840.215 148.589 836.596 155.521 830.586 163.293C818.568 178.835 797.05 197.661 767.744 218.534C709.138 260.277 619.465 310.154 512.614 358.265Z" stroke="#083D4E"/>
<path d="M387.386 358.265C494.236 406.376 598.007 443.601 679.397 464.895C720.097 475.543 755.173 482.2 782.225 484.25C795.753 485.275 807.24 485.145 816.405 483.8C825.569 482.454 832.345 479.905 836.558 476.124C840.77 472.344 842.305 467.434 841.26 461.493C840.215 455.55 836.596 448.618 830.586 440.846C818.568 425.304 797.05 406.478 767.744 385.605C709.138 343.862 619.465 293.985 512.614 245.874C405.764 197.762 301.993 160.538 220.603 139.244C179.903 128.596 144.827 121.939 117.775 119.889C104.247 118.864 92.7599 118.994 83.5949 120.339C74.4313 121.685 67.655 124.234 63.4425 128.015C59.2299 131.795 57.6954 136.705 58.74 142.646C59.7847 148.589 63.4039 155.521 69.4138 163.293C81.4321 178.835 102.95 197.661 132.256 218.534C190.862 260.277 280.535 310.154 387.386 358.265Z" stroke="#083D4E"/>
<path d="M341.531 301.478C340.409 384.686 351.584 460.061 370.544 514.657C380.025 541.958 391.443 564.036 404.221 579.3C417.001 594.565 431.096 602.964 445.939 603.045C460.783 603.126 475.102 594.882 488.292 579.758C501.481 564.636 513.493 542.685 523.708 515.492C544.139 461.111 557.346 385.869 558.469 302.661C559.591 219.453 548.416 144.078 529.456 89.4816C519.975 62.1814 508.557 40.1034 495.778 24.8395C482.998 9.57369 468.904 1.17495 454.06 1.09402C439.217 1.0131 424.898 9.25694 411.708 24.3811C398.519 39.5035 386.507 61.4538 376.291 88.6466C355.861 143.028 342.654 218.27 341.531 301.478Z" stroke="#083D4E"/>
</svg>
