<svg width="115" height="116" viewBox="0 0 115 116" fill="none" xmlns="http://www.w3.org/2000/svg">
<circle cx="57.5" cy="58.5" r="57.5" fill="#002263"/>
<path d="M30.0001 77.5C21.2001 84.7 8.3337 81.5 3.50037 78.5C-8.99996 35.5 19 8.5 45.0002 2.49999C63.6157 -2.3544 77.5001 4.99998 77.5001 4.99998C77.5001 4.99998 74.3335 20.5 77.5001 25.5C74.1668 30.8333 66.0001 40.6 60.0001 37C54.0001 33.4 52.1668 38.5 52.0001 41.5C57.5001 55.1667 66.8001 82.9 60.0001 84.5C53.2001 86.1 48.8334 80.5 47.5001 77.5C45.3334 74.5 38.8001 70.3 30.0001 77.5Z" fill="#39B400"/>
<path d="M93.9999 14.5C89.1999 15.3 91.9999 23.5 93.9999 27.5C95.4999 36 89.5 33 95 45.5C100.5 58 102.5 47 110.5 56.5C118.5 66 111.5 41.5 111.5 39.5C111.5 37.5 99.9999 13.5 93.9999 14.5Z" fill="#39B400"/>
<path d="M87.5 99.5C79.1 102.7 72.6667 110.5 70.5 114C76 113.5 83.4386 110.25 88.5 107C95.3355 102.611 101.5 96 102.5 94L87.5 99.5Z" fill="#C4C4C4"/>
</svg>
