<svg width="97" height="167" viewBox="0 0 97 167" fill="none" xmlns="http://www.w3.org/2000/svg">
<path d="M2.72191e-06 40C2.72191e-06 17.9086 17.9086 0 40 0H57C79.0914 0 97 17.9086 97 40V133H2.72191e-06V40Z" fill="#46E9FF"/>
<path d="M25 154.5C25 161.404 19.4036 167 12.5 167C5.59644 167 -6.03528e-07 161.404 0 154.5L2.72191e-06 133H25L25 154.5Z" fill="#46E9FF"/>
<path d="M97 154.5C97 161.404 91.4036 167 84.5 167C77.5964 167 72 161.404 72 154.5V133H97V154.5Z" fill="#46E9FF"/>
<path d="M61 154.5C61 161.404 55.4036 167 48.5 167C41.5964 167 36 161.404 36 154.5V133H61V154.5Z" fill="#46E9FF"/>
<circle cx="36" cy="53" r="22.5" stroke="#052E34" stroke-width="3"/>
<path d="M65.5 53C65.5 56.874 64.737 60.7101 63.2544 64.2892C61.7719 67.8683 59.599 71.1203 56.8596 73.8597C54.1203 76.599 50.8683 78.7719 47.2892 80.2544C43.7101 81.737 39.874 82.5 36 82.5C32.126 82.5 28.2899 81.737 24.7108 80.2544C21.1317 78.7719 17.8797 76.599 15.1403 73.8596C12.401 71.1203 10.2281 67.8683 8.74555 64.2892C7.26304 60.7101 6.5 56.874 6.5 53" stroke="#052E34" stroke-width="3"/>
<circle cx="35.5" cy="53.5" r="11.5" fill="#052E34"/>
<circle cx="38.5" cy="54.5" r="6.5" fill="#46E9FF"/>
</svg>
