<svg width="197" height="58" viewBox="0 0 197 58" fill="none" xmlns="http://www.w3.org/2000/svg">
<line x1="10.5" y1="-2.18557e-08" x2="10.5" y2="58" stroke="#1E3546"/>
<line x1="10.5" y1="-2.18557e-08" x2="10.5" y2="58" stroke="#1E3546"/>
<line x1="21.5" y1="-2.18557e-08" x2="21.5" y2="58" stroke="#1E3546"/>
<line x1="32.5" y1="-2.18557e-08" x2="32.5" y2="58" stroke="#1E3546"/>
<line x1="43.5" y1="-2.18557e-08" x2="43.5" y2="58" stroke="#1E3546"/>
<line x1="54.5" y1="-2.18557e-08" x2="54.5" y2="58" stroke="#1E3546"/>
<line x1="65.5" y1="-2.18557e-08" x2="65.5" y2="58" stroke="#1E3546"/>
<line x1="76.5" y1="-2.18557e-08" x2="76.5" y2="58" stroke="#1E3546"/>
<line x1="87.5" y1="-2.18557e-08" x2="87.5" y2="58" stroke="#1E3546"/>
<line x1="98.5" y1="-2.18557e-08" x2="98.5" y2="58" stroke="#1E3546"/>
<line x1="109.5" y1="-2.18557e-08" x2="109.5" y2="58" stroke="#1E3546"/>
<line x1="120.5" y1="-2.18557e-08" x2="120.5" y2="58" stroke="#1E3546"/>
<line x1="131.5" y1="-2.18557e-08" x2="131.5" y2="58" stroke="#1E3546"/>
<line x1="142.5" y1="-2.18557e-08" x2="142.5" y2="58" stroke="#1E3546"/>
<line x1="153.5" y1="-2.18557e-08" x2="153.5" y2="58" stroke="#1E3546"/>
<line x1="164.5" y1="-2.18557e-08" x2="164.5" y2="58" stroke="#1E3546"/>
<line x1="175.5" y1="-2.18557e-08" x2="175.5" y2="58" stroke="#1E3546"/>
<line x1="186.5" y1="-2.18557e-08" x2="186.5" y2="58" stroke="#1E3546"/>
<line y1="7.5" x2="197" y2="7.5" stroke="#1E3546"/>
<line y1="18.5" x2="197" y2="18.5" stroke="#1E3546"/>
<line y1="29.5" x2="197" y2="29.5" stroke="#1E3546"/>
<line y1="40.5" x2="197" y2="40.5" stroke="#1E3546"/>
<line y1="51.5" x2="197" y2="51.5" stroke="#1E3546"/>
</svg>
